<svg width="660" height="660" viewBox="0 0 660 660" fill="none" xmlns="http://www.w3.org/2000/svg">
<rect x="495.5" y="83" width="81.5" height="81.5" fill="#F04B35" stroke="white"/>
<rect x="165.5" y="0.5" width="81.5" height="81.5" fill="#F04B35" stroke="white"/>
<rect x="0.5" y="0.5" width="81.5" height="81.5" fill="#F04B35" stroke="white"/>
<rect x="0.5" y="165.5" width="81.5" height="81.5" fill="#F04B35" stroke="white"/>
<rect x="0.5" y="330.5" width="81.5" height="81.5" fill="#F04B35" stroke="white"/>
<rect x="0.5" y="495.5" width="81.5" height="81.5" fill="#F04B35" stroke="white"/>
<rect x="330.5" y="0.5" width="81.5" height="81.5" fill="#F04B35" stroke="white"/>
<rect x="165.5" y="165.5" width="81.5" height="81.5" fill="#F04B35" stroke="white"/>
<rect x="165.5" y="330.5" width="81.5" height="81.5" fill="#F04B35" stroke="white"/>
<rect x="165.5" y="495.5" width="81.5" height="81.5" fill="#F04B35" stroke="white"/>
<rect x="330.5" y="165.5" width="81.5" height="81.5" fill="#F04B35" stroke="white"/>
<rect x="330.5" y="330.5" width="81.5" height="81.5" fill="#F04B35" stroke="white"/>
<rect x="330.5" y="495.5" width="81.5" height="81.5" fill="#F04B35" stroke="white"/>
<rect x="495.5" y="0.5" width="81.5" height="81.5" fill="#F04B35" stroke="white"/>
<rect x="495.5" y="165.5" width="81.5" height="81.5" fill="#F04B35" stroke="white"/>
<rect x="495.5" y="330.5" width="81.5" height="81.5" fill="#F04B35" stroke="white"/>
<rect x="495.5" y="495.5" width="81.5" height="81.5" fill="#F04B35" stroke="white"/>
<rect x="248" y="0.5" width="81.5" height="81.5" fill="#F04B35" stroke="white"/>
<rect x="83" y="0.5" width="81.5" height="81.5" fill="#F04B35" stroke="white"/>
<rect x="83" y="165.5" width="81.5" height="81.5" fill="#F04B35" stroke="white"/>
<rect x="83" y="330.5" width="81.5" height="81.5" fill="#F04B35" stroke="white"/>
<rect x="83" y="495.5" width="81.5" height="81.5" fill="#F04B35" stroke="white"/>
<rect x="413" y="0.5" width="81.5" height="81.5" fill="#F04B35" stroke="white"/>
<rect x="248" y="165.5" width="81.5" height="81.5" fill="#F04B35" stroke="white"/>
<rect x="248" y="330.5" width="81.5" height="81.5" fill="#F04B35" stroke="white"/>
<rect x="248" y="495.5" width="81.5" height="81.5" fill="#F04B35" stroke="white"/>
<rect x="413" y="165.5" width="81.5" height="81.5" fill="#F04B35" stroke="white"/>
<rect x="413" y="330.5" width="81.5" height="81.5" fill="#F04B35" stroke="white"/>
<rect x="413" y="495.5" width="81.5" height="81.5" fill="#F04B35" stroke="white"/>
<rect x="578" y="0.5" width="81.5" height="81.5" fill="#F04B35" stroke="white"/>
<rect x="578" y="165.5" width="81.5" height="81.5" fill="#F04B35" stroke="white"/>
<rect x="578" y="330.5" width="81.5" height="81.5" fill="#F04B35" stroke="white"/>
<rect x="578" y="495.5" width="81.5" height="81.5" fill="#F04B35" stroke="white"/>
<rect x="165.5" y="83" width="81.5" height="81.5" fill="#F04B35" stroke="white"/>
<rect x="0.5" y="83" width="81.5" height="81.5" fill="#F04B35" stroke="white"/>
<rect x="0.5" y="248" width="81.5" height="81.5" fill="#F04B35" stroke="white"/>
<rect x="0.5" y="413" width="81.5" height="81.5" fill="#F04B35" stroke="white"/>
<rect x="0.5" y="578" width="81.5" height="81.5" fill="#F04B35" stroke="white"/>
<rect x="330.5" y="83" width="81.5" height="81.5" fill="#F04B35" stroke="white"/>
<rect x="165.5" y="248" width="81.5" height="81.5" fill="#F04B35" stroke="white"/>
<rect x="165.5" y="413" width="81.5" height="81.5" fill="#F04B35" stroke="white"/>
<rect x="165.5" y="578" width="81.5" height="81.5" fill="#F04B35" stroke="white"/>
<rect x="330.5" y="248" width="81.5" height="81.5" fill="#F04B35" stroke="white"/>
<rect x="330.5" y="413" width="81.5" height="81.5" fill="#F04B35" stroke="white"/>
<rect x="330.5" y="578" width="81.5" height="81.5" fill="#F04B35" stroke="white"/>
<rect x="495.5" y="248" width="81.5" height="81.5" fill="#F04B35" stroke="white"/>
<rect x="495.5" y="413" width="81.5" height="81.5" fill="#F04B35" stroke="white"/>
<rect x="495.5" y="578" width="81.5" height="81.5" fill="#F04B35" stroke="white"/>
<rect x="248" y="83" width="81.5" height="81.5" fill="#F04B35" stroke="white"/>
<rect x="83" y="83" width="81.5" height="81.5" fill="#F04B35" stroke="white"/>
<rect x="83" y="248" width="81.5" height="81.5" fill="#F04B35" stroke="white"/>
<rect x="83" y="413" width="81.5" height="81.5" fill="#F04B35" stroke="white"/>
<rect x="83" y="578" width="81.5" height="81.5" fill="#F04B35" stroke="white"/>
<rect x="413" y="83" width="81.5" height="81.5" fill="#F04B35" stroke="white"/>
<rect x="248" y="248" width="81.5" height="81.5" fill="#F04B35" stroke="white"/>
<rect x="248" y="413" width="81.5" height="81.5" fill="#F04B35" stroke="white"/>
<rect x="248" y="578" width="81.5" height="81.5" fill="#F04B35" stroke="white"/>
<rect x="413" y="248" width="81.5" height="81.5" fill="#F04B35" stroke="white"/>
<rect x="413" y="413" width="81.5" height="81.5" fill="#F04B35" stroke="white"/>
<rect x="413" y="578" width="81.5" height="81.5" fill="#F04B35" stroke="white"/>
<rect x="578" y="83" width="81.5" height="81.5" fill="#F04B35" stroke="white"/>
<rect x="578" y="248" width="81.5" height="81.5" fill="#F04B35" stroke="white"/>
<rect x="578" y="413" width="81.5" height="81.5" fill="#F04B35" stroke="white"/>
<rect x="578" y="578" width="81.5" height="81.5" fill="#F04B35" stroke="white"/>
</svg>
