<svg width="155" height="118" viewBox="0 0 155 118" fill="none" xmlns="http://www.w3.org/2000/svg">
<path d="M124.184 4.99916L147 69.0293H127.55L105.295 4.99916H124.184Z" fill="#D800EE"/>
<path d="M17.208 69.0293H127.55M92.3902 4.99916H105.295M127.55 69.0293H147L124.184 4.99916H105.295M127.55 69.0293L105.295 4.99916" stroke="white" stroke-width="10"/>
<ellipse cx="28.5602" cy="33.6637" rx="28.5602" ry="33.6637" transform="matrix(0 -1 -1 0 67.3274 114.609)" fill="white"/>
<path d="M60.8313 91.7412C60.8313 79.6995 49.0708 68.9844 33.2854 68.9844C17.5002 68.9846 5.74048 79.6997 5.74048 91.7412C5.74056 103.783 17.5003 114.498 33.2854 114.498C49.0708 114.498 60.8312 103.783 60.8313 91.7412Z" stroke="#D800EE" stroke-width="7"/>
</svg>
