<svg width="57" height="252" viewBox="0 0 57 252" fill="none" xmlns="http://www.w3.org/2000/svg">
<g filter="url(#filter0_i_299_1435)">
<path d="M56 0H0V239C0 245.627 5.37258 251 12 251H44C50.6274 251 56 245.627 56 239V0Z" fill="white"/>
</g>
<path d="M11.82 247.259L11.8208 251.009L44.2813 251.002L44.2806 247.252L11.82 247.259ZM3.97199 239.76L3.924 3.76081L52.0775 3.751L52.1255 239.75C52.1264 243.893 48.6141 247.251 44.2806 247.252L44.2813 251.002L44.8867 250.988C51.1055 250.685 56.05 245.769 56.0488 239.749L56 0L-4.76837e-07 0.0114079L0.0487558 239.761C0.0500194 245.974 5.32052 251.01 11.8208 251.009L11.82 247.259C7.4865 247.26 3.97283 243.902 3.97199 239.76Z" fill="#EE9300"/>
<defs>
<filter id="filter0_i_299_1435" x="0" y="0" width="56" height="255" filterUnits="userSpaceOnUse" color-interpolation-filters="sRGB">
<feFlood flood-opacity="0" result="BackgroundImageFix"/>
<feBlend mode="normal" in="SourceGraphic" in2="BackgroundImageFix" result="shape"/>
<feColorMatrix in="SourceAlpha" type="matrix" values="0 0 0 0 0 0 0 0 0 0 0 0 0 0 0 0 0 0 127 0" result="hardAlpha"/>
<feOffset dy="4"/>
<feGaussianBlur stdDeviation="5.55"/>
<feComposite in2="hardAlpha" operator="arithmetic" k2="-1" k3="1"/>
<feColorMatrix type="matrix" values="0 0 0 0 0 0 0 0 0 0 0 0 0 0 0 0 0 0 0.25 0"/>
<feBlend mode="normal" in2="shape" result="effect1_innerShadow_299_1435"/>
</filter>
</defs>
</svg>
