<svg width="268" height="269" viewBox="0 0 268 269" fill="none" xmlns="http://www.w3.org/2000/svg">
<path d="M143.289 71.3673L113.808 0L103.524 79.8308L37.2506 45.5196L75.6436 105.907L0.000213623 115.972L65.3598 146.395L10.7411 195.803L85.0134 182.078L69.0163 258.249L120.664 200.606L153.344 269L160.657 190.999L227.159 230.8L192.651 163.093L267.609 155.315L199.278 122.605L251.612 71.3673L177.797 89.8954L192.651 13.0383L143.289 71.3673Z" fill="#F04B35"/>
<path d="M139.87 94.3489L121.016 48.6984L114.44 99.7626L72.0568 77.8152L96.6097 116.443L48.2346 122.88L90.033 142.34L55.1036 173.945L102.602 165.166L92.3714 213.889L125.401 177.017L146.3 220.766L150.977 170.872L193.506 196.331L171.438 153.021L219.374 148.047L175.676 127.124L209.144 94.3489L161.938 106.2L171.438 57.0384L139.87 94.3489Z" fill="#FFF0B4"/>
</svg>
