<svg width="140" height="141" viewBox="0 0 140 141" fill="none" xmlns="http://www.w3.org/2000/svg">
<path d="M74.8313 37.2721L59.4354 0.000976562L54.0647 41.692L19.4538 23.7732L39.5043 55.3103L0 60.5665L34.1336 76.4545L5.60937 102.258L44.3975 95.0901L36.0432 134.87L63.0159 104.766L80.0826 140.484L83.9018 99.749L118.632 120.535L100.611 85.175L139.757 81.1134L104.072 64.0308L131.402 37.2721L92.8529 46.9482L100.611 6.81012L74.8313 37.2721Z" fill="#F04B35"/>
<path d="M73.0452 49.2727L63.1993 25.432L59.7647 52.0999L37.6304 40.6381L50.453 60.811L25.1895 64.1731L47.0184 74.3359L28.7767 90.841L53.5823 86.2563L48.2396 111.702L65.489 92.4457L76.4035 115.293L78.8459 89.2364L101.056 102.532L89.5314 79.914L114.566 77.316L91.7448 66.3891L109.223 49.2727L84.5703 55.4621L89.5314 29.7875L73.0452 49.2727Z" fill="#FFF0B4"/>
</svg>
