<svg width="465" height="467" viewBox="0 0 465 467" fill="none" xmlns="http://www.w3.org/2000/svg">
<path d="M215.828 123.898L267.008 0L284.861 138.591L399.916 79.0247L333.263 183.861L464.585 201.334L351.117 254.15L445.938 339.925L316.997 316.099L344.769 448.336L255.105 348.264L198.371 467L185.676 331.586L70.2238 400.683L130.132 283.139L0.000488281 269.637L118.626 212.85L27.7724 123.898L155.92 156.064L130.132 22.6352L215.828 123.898Z" fill="#EE9300"/>
<path d="M221.763 163.795L254.493 84.5428L265.911 173.193L339.49 135.091L296.865 202.151L380.847 213.327L308.282 247.111L368.922 301.978L286.462 286.737L304.223 371.323L246.881 307.312L210.599 383.262L202.48 296.643L128.647 340.842L166.959 265.654L83.7381 257.017L159.601 220.694L101.499 163.795L183.451 184.37L166.959 99.0215L221.763 163.795Z" fill="#FFDB70"/>
</svg>
