<svg width="140" height="141" viewBox="0 0 140 141" fill="none" xmlns="http://www.w3.org/2000/svg">
<path d="M64.9255 103.213L80.3214 140.484L85.6921 98.7933L120.303 116.712L100.253 85.175L139.757 79.9188L105.623 64.0308L134.147 38.2278L95.3593 45.3953L103.714 5.61553L76.741 35.7191L59.6742 0.000976563L55.855 40.7364L21.1247 19.9506L39.1463 55.3103L7.62939e-05 59.3719L35.6852 76.4545L8.35445 103.213L46.9039 93.5371L39.1463 133.675L64.9255 103.213Z" fill="#EE9300"/>
<path d="M66.7107 91.2107L76.5566 115.051L79.9912 88.3834L102.125 99.8453L89.3029 79.6724L114.566 76.3103L92.7375 66.1475L110.979 49.6424L86.1735 54.2271L91.5163 28.7818L74.2668 48.0377L63.3524 25.1904L60.91 51.247L38.6994 37.9513L50.2245 60.5694L25.1899 63.1674L48.0111 74.0943L30.5326 91.2107L55.1856 85.0213L50.2245 110.696L66.7107 91.2107Z" fill="#FFDB70"/>
</svg>
